<?xml version="1.0" encoding="UTF-8"?> <svg xmlns="http://www.w3.org/2000/svg" version="1.1" id="Logo" x="0" y="0" viewBox="0 0 205.9 59" xml:space="preserve"><style>.st0{fill:#fff}.st1{fill:#ef6214}</style><path class="st0" d="M3.5 49c-.9-.4-1.6-.7-1.6-1.3s.2-1.2 1.7-1.2c.6 0 1.4.2 1.9.4l.4.2.2-1.6-.2-.1c-.9-.3-1.9-.5-2.5-.5-1.6 0-3.3.7-3.3 2.8 0 1.6 1.3 2.2 2.5 2.8 1 .5 1.9.9 1.9 1.7 0 .9-.9 1.3-1.7 1.3-1 0-1.8-.3-2.3-.5l-.4-.2-.1 1.8.2.1c.8.3 1.6.5 2.7.5 1.7 0 3.5-.9 3.5-2.9S4.8 49.6 3.5 49zM14.6 53.4c-.3.1-.6.2-.9.2-.2 0-.9 0-.9-1.2v-5.6h2.1v-1.6h-2.1v-2.7L11 43v2.1H9.2v1.6H11v5c0 1.5 0 3.4 2.4 3.4.6 0 1.2-.1 1.5-.3l.2-.1-.1-1.5-.4.2zM22.7 44.9c-3.4 0-4.6 2.7-4.6 5.1s1.2 5.1 4.6 5.1 4.6-2.7 4.6-5.1c0-2.3-1.2-5.1-4.6-5.1zm0 8.7c-2 0-2.7-1.9-2.7-3.5s.7-3.5 2.7-3.5 2.7 1.9 2.7 3.5-.7 3.5-2.7 3.5zM35.5 44.9c-1.3 0-2.1.6-2.6 1.2v-1h-1.8v13.5H33V54c.6.7 1.5 1.1 2.6 1.1 2.5 0 4.1-2 4.1-5.1-.1-3.2-1.5-5.1-4.2-5.1zm-.1 8.7c-1.9 0-2.4-2.2-2.4-3.5 0-1.3.5-3.5 2.4-3.5 2.1 0 2.4 2.2 2.4 3.5 0 1.3-.3 3.5-2.4 3.5zM52.3 49c-.9-.4-1.6-.7-1.6-1.3s.2-1.2 1.7-1.2c.6 0 1.4.2 1.9.4l.4.2.2-1.6-.2-.1c-.8-.3-1.8-.4-2.4-.4-1.6 0-3.3.7-3.3 2.8 0 1.6 1.3 2.2 2.5 2.8 1 .5 1.9.9 1.9 1.7 0 .9-.9 1.3-1.7 1.3s-1.5-.2-2.2-.5l-.5-.3-.2 1.8.2.1c.8.3 1.6.5 2.7.5 1.7 0 3.5-.9 3.5-2.9s-1.6-2.7-2.9-3.3zM62.6 44.9c-2.5 0-4.2 2.1-4.2 5.1 0 3.3 1.6 5.1 4.5 5.1.9 0 2-.2 2.8-.5l.2-.1v-1.9l-.5.3c-.5.3-1.6.6-2.4.6-1.9 0-2.6-1.5-2.7-2.9h6.3v-.9c0-2.9-1.5-4.8-4-4.8zm-2.3 4.2c.1-1.3 1-2.6 2.4-2.6 1.7 0 2 1.7 2 2.6h-4.4zM77.5 52.7v-4c0-2.6-1.1-3.7-3.5-3.7-.8 0-2.1.3-2.8.7H71v1.8l.5-.3c.7-.5 1.6-.7 2.5-.7 1.3 0 1.8.6 1.8 2v.2c-2 0-5.9.1-5.9 3.5 0 .5.2 2.9 3.3 2.9.9 0 1.9-.3 2.6-1.1v.9h1.8l-.1-.3v-1.9zm-4.1.9c-.7 0-1.6-.2-1.6-1.3 0-1.4 1.2-1.9 4-1.9v.3c0 1.3-.3 2.9-2.4 2.9zM85.9 44.9c-.8 0-1.5.4-2.1 1.2v-.9H82v.3c.1.6.1 1 .1 2v7.4h1.7v-4.8c0-1 .2-3.4 2-3.4.3 0 .5 0 .7.1l.4.1v-1.8l-.2-.1c-.2 0-.5-.1-.8-.1zM96.5 53.2c-.7.3-1.3.4-2 .4-1.8 0-3-1.4-3-3.5 0-2.2 1.2-3.5 3.1-3.5.5 0 1.2.2 1.8.4l.4.2.1-1.7-.2-.1c-.3-.1-1.1-.4-2.3-.4-2.8 0-4.8 2.1-4.8 5.1 0 2.5 1.4 5.1 4.7 5.1.9 0 1.6-.1 2.5-.3l.2-.1-.2-1.7-.3.1zM105.2 44.9c-1 0-1.9.4-2.6 1.1v-5.1h-1.7v14h1.7v-5.2c0-1.5.6-3.2 2.4-3.2 1.4 0 1.9.7 1.9 2.6v5.8h1.7v-5.8c0-1 0-4.2-3.4-4.2zM113.3 41.2h1.7v2.1h-1.7zM113.3 45.2h1.7V55h-1.7zM124.2 44.9c-1.4 0-2.2.5-2.7 1.1v-.9h-1.7v.3c.1.7.1 1.4.1 2.1v7.4h1.7v-5.4c0-.7.2-3 2.4-3 1.3 0 1.9.8 1.9 2.5v5.9h1.7v-6.2c0-2.4-1.2-3.8-3.4-3.8zM138.5 45.8c-.7-.7-1.5-.8-2.6-.8-2.6 0-4.1 1.8-4.1 5.1 0 2.3 1.1 4.9 4.2 4.9 1 0 1.9-.4 2.5-1.1-.1 2.2-.7 3.4-2.8 3.4-.9 0-1.8-.2-2.6-.6l-.4-.2-.1 1.6v.3l.2.1c.5.1 1.6.5 2.8.5 2.9 0 4.6-1.8 4.6-4.9v-8.7h-1.7v.4zm-2.5 7.5c-2.2 0-2.3-2.5-2.3-3.3 0-1.3.3-3.5 2.4-3.5 1 0 2.4.4 2.4 3.5 0 1.6-.7 3.3-2.5 3.3zM145.7 48H156v1.8h-10.3zM165.9 40.6c-2.7 0-2.7 2.4-2.7 4.2v.4h-1.8v1.6h1.8v8.1h1.7v-8.2h2.1v-1.6h-2.1v-.8c0-.7 0-1.5.4-1.9.2-.2.4-.2.7-.2s.6.1.8.2l.4.2.1-1.6-.2-.1c-.4-.3-1.1-.3-1.2-.3zM170.9 41.2h1.7v2.1h-1.7zM170.9 45.2h1.7V55h-1.7zM181.7 44.9c-1.4 0-2.2.5-2.7 1.1v-.9h-1.7v.3c.1.7.1 1.4.1 2.1v7.4h1.7v-5.4c0-.7.2-3 2.4-3 .8 0 1.9.3 1.9 2.5v5.9h1.7v-6.2c.1-2.4-1.2-3.8-3.4-3.8zM196 46.1c-.5-.5-1.3-1.1-2.6-1.1-2.6 0-4.1 1.8-4.1 5.1 0 3.1 1.6 5.1 4.1 5.1 1.1 0 2-.3 2.6-1v.7h1.7v-14H196v5.2zm-2.4 7.5c-2.1 0-2.4-2.2-2.4-3.5 0-1.3.3-3.5 2.4-3.5 1.9 0 2.4 2.2 2.4 3.5 0 1.2-.5 3.5-2.4 3.5zM203.8 52.8h2.1v2.1h-2.1zM205.6 51.9l.2-10.1h-2l.2 10.1z"></path><g><path class="st1" d="M0 7.7V33h4.5V21.3h8.2V17H4.5v-5.1H13V7.7h-.7zM17.2 7.7V33h4.5V7.7h-.8zM99.7 3.3V0H79.8v4h19.9zM142.6 3.3V0h-19.8v4h19.8zM59.5 7.7h-5.7V33h5.6c8.8 0 14.2-4.9 14.2-12.8 0-7.6-5.5-12.5-14.1-12.5zm-.9 21h-.3V11.9h.3c4.8 0 10.5 1.5 10.5 8.4 0 7-5.7 8.4-10.5 8.4zM89.7 7.2c-7.3 0-13.2 5.9-13.2 13.2 0 7.4 5.8 13.2 13.2 13.2 7.4 0 13.2-5.8 13.2-13.2.1-7.3-5.9-13.2-13.2-13.2zm0 21.9c-4.8 0-8.7-4-8.7-8.8 0-5 3.7-8.8 8.7-8.8s8.7 3.8 8.7 8.8c.1 4.9-3.9 8.8-8.7 8.8zM111.2 7.7h-4.5V33h11.7v-4.3h-7.2v-21zM132.7 7.2c-7.3 0-13.2 5.9-13.2 13.2 0 7.4 5.8 13.2 13.2 13.2s13.2-5.8 13.2-13.2c0-7.3-5.9-13.2-13.2-13.2zm0 21.9c-4.8 0-8.7-4-8.7-8.8 0-5 3.7-8.8 8.7-8.8s8.7 3.8 8.7 8.8c0 4.9-3.9 8.8-8.7 8.8zM162.6 23.7h6c-.6 3.2-4 5.5-6.9 5.5-4.5 0-8.5-4.2-8.5-8.9 0-5 3.8-8.9 8.7-8.9 2.6 0 5.3 1.4 6.8 3.6l.5.7 3.2-3.1-.4-.6c-2.4-3.1-6.3-4.9-10.3-4.9-7.2 0-13.1 5.9-13.1 13.2 0 7.1 5.9 13.1 12.8 13.1 7 0 12-5.2 12-12.3v-1.7h-11v4.3h.2zM177.2 7.7V33h4.5V7.7h-.7zM198.8 11.4c2.1 0 4.3.8 5.8 2.1l1.3 1.1V9l-.4-.2c-1.8-1.1-4-1.7-6.4-1.7-7.5 0-13.4 5.8-13.4 13.3 0 7.2 5.9 13 13.2 13 2.3 0 4.7-.7 6.6-1.8l.4-.2v-5.7l-1.3 1.1c-1.6 1.5-3.7 2.3-5.8 2.3-4.7 0-8.6-4-8.6-8.9 0-4.8 3.8-8.8 8.6-8.8zM44.6 23.4C42.3 21 26.7 7.2 26.7 7.2v25.7h4.5V17.2C33.5 19.6 49 33.5 49 33.5V7.6h-4.5s.1 12.8.1 15.8z"></path><path class="st1" d="M89.7 16.6c-2 0-3.7 1.6-3.7 3.7 0 2 1.6 3.7 3.7 3.7 2 0 3.7-1.6 3.7-3.7 0-2-1.6-3.7-3.7-3.7zM132.7 16.8c-2 0-3.5 1.6-3.5 3.5 0 2 1.6 3.5 3.5 3.5 2 0 3.5-1.6 3.5-3.5 0-2-1.5-3.5-3.5-3.5z"></path></g></svg> 